<svg width="85" height="63" viewBox="0 0 85 63" fill="none" xmlns="http://www.w3.org/2000/svg">
<g clip-path="url(#clip0_3_3802)">
<path d="M40.7589 14.0274C40.7589 14.0274 33.6274 30.4369 26.7837 37.5124C20.2497 44.2689 12.7764 47.1464 11.3038 48.8194C8.4806 52.013 11.2941 56.0454 11.2941 56.0454C11.2941 56.0454 12.4862 64.817 63.3957 38.2763C67.2305 36.7722 77.8871 33.3242 81.9654 26.5782C80.332 12.9046 69.5653 6.52095 67.0764 5.10402C64.5844 3.68048 62.313 4.24713 61.6207 5.85682C60.9254 7.45991 63.1621 12.5357 57.8447 15.3087C52.5272 18.0817 42.9628 13.019 42.9628 13.019L40.762 14.034L40.7589 14.0274Z" fill="#1200BE"/>
<path d="M41.9594 48.7637C47.8888 46.1012 54.9561 42.6735 63.3957 38.2763C64.8894 37.6916 67.4247 36.8109 70.2031 35.5536C67.9594 35.2418 65.8559 35.3383 64.4877 36.2819C60.0801 39.3245 42.0634 47.6337 42.0634 47.6337C42.0634 47.6337 42.0165 48.0881 41.9594 48.7637Z" fill="#01000D"/>
<path d="M42.9598 13.0124L40.759 14.0274C40.759 14.0274 36.2857 24.3138 31.0314 32.107C34.5458 32.7064 41.1985 32.5156 46.0172 24.3862C47.9229 21.167 49.5829 18.3014 50.9764 15.8313C46.8068 15.0453 42.9568 13.0058 42.9568 13.0058L42.9598 13.0124Z" fill="#01000D"/>
<path d="M67.1308 5.13503C67.1308 5.13503 67.0957 5.11113 67.0764 5.10401C64.5845 3.68047 62.3131 4.24712 61.6208 5.85681C60.9254 7.4599 63.1622 12.5357 57.8447 15.3087C52.5273 18.0817 42.9629 13.019 42.9629 13.019L41.1321 13.8633C43.9441 16.2934 52.4711 22.4436 61.984 17.3671C67.7738 14.2801 68.4309 9.44861 67.1272 5.14469L67.1308 5.13503Z" fill="#000001"/>
<path d="M81.9654 26.5782C81.8315 25.4538 81.6341 24.3827 81.3899 23.3491C72.5678 23.25 60.843 25.1468 48.7444 31.5682C35.7118 38.4844 25.6339 49.8087 20.3005 56.7007C21.6289 56.4006 23.1464 55.9893 24.8861 55.4515C30.2359 49.6901 38.0056 43.1973 48.6084 37.7383C58.6551 32.5679 67.862 32.6498 73.9195 33.6713C77.119 31.8671 80.1818 29.5408 81.969 26.5686L81.9654 26.5782Z" fill="#01000D"/>
<path d="M47.2369 46.8427C43.9634 44.6976 42.6675 45.1028 38.857 46.9724C34.6362 49.0472 20.178 53.5673 17.3038 53.6264C14.4297 53.6856 14.0663 51.6811 12.7389 50.2976C12.1997 49.7367 11.382 49.3364 10.4111 49.2472C8.5014 52.2839 10.5236 55.6954 10.8681 56.2339C10.9392 56.4576 11.1622 56.9238 11.8473 57.2971C14.0176 58.4923 21.1997 58.8588 44.9003 47.9283C45.667 47.5747 46.4469 47.215 47.2339 46.836L47.2369 46.8427Z" fill="#2DA1AD"/>
<path d="M82.3583 26.8218L82.4407 26.6877L82.423 26.5275C82.2815 25.3344 82.0729 24.2044 81.8043 23.118C79.9468 24.8082 72.8746 29.5285 67.0747 32.3156C61.9892 34.7572 62.5963 37.8114 63.061 38.9757C63.2364 38.8867 63.4088 38.7912 63.5842 38.7023C63.9502 38.5575 64.3753 38.4016 64.8465 38.2243C66.3824 37.6443 68.4947 36.8544 70.722 35.8272C76.4985 33.1631 80.3037 30.222 82.3517 26.8249L82.3583 26.8218Z" fill="#2DA1AD"/>
<path d="M47.0243 33.139L32.5371 28.4551C31.1111 30.82 29.5798 33.1131 28.0375 35.0347L38.189 38.3118C42.903 37.4281 45.7098 34.7551 47.0278 33.1293L47.0243 33.139Z" fill="#00FFF0"/>
<path d="M18.9019 43.1191L27.5575 45.9159C32.2716 45.0323 35.0783 42.3592 36.3964 40.7335L25.9613 37.3628C23.6136 39.7279 21.1477 41.6105 18.9085 43.1161L18.9019 43.1191Z" fill="#00FFF0"/>
<path d="M37.8078 18.6986C36.8266 20.69 35.5978 23.1002 34.2109 25.5672L48.6498 30.2333C53.3602 29.3593 56.1706 26.6766 57.4886 25.0508L37.8078 18.6986Z" fill="#00FFF0"/>
<path d="M37.8078 18.6986C36.8266 20.69 35.5978 23.1002 34.2109 25.5672L40.7195 27.671C42.2954 25.718 43.9135 23.5611 45.5576 21.1998L37.8078 18.6986Z" fill="#91E0ED"/>
<path d="M32.5371 28.4551C31.1111 30.82 29.5798 33.1131 28.0375 35.0347L32.6441 36.5249C34.4939 34.7661 36.4404 32.7303 38.4719 30.3747L32.5371 28.4551Z" fill="#91E0ED"/>
<path d="M25.9547 37.3658C23.607 39.7309 21.1411 41.6136 18.9019 43.1191L22.5575 44.3026C24.7539 43.0171 27.3342 41.226 30.2034 38.7405L25.9547 37.3658Z" fill="#91E0ED"/>
</g>
<defs>
<clipPath id="clip0_3_3802">
<rect width="78.3792" height="32.5191" fill="white" transform="translate(0 32.8251) rotate(-24.7587)"/>
</clipPath>
</defs>
</svg>
