<svg width="29" height="29" viewBox="0 0 29 29" fill="none" xmlns="http://www.w3.org/2000/svg">
<path d="M3.8147e-06 14.5C3.8147e-06 12.5959 0.375055 10.7103 1.10375 8.95111C1.83244 7.19189 2.90051 5.59342 4.24695 4.24697C5.5934 2.90052 7.19187 1.83246 8.95109 1.10377C10.7103 0.375075 12.5958 2.09808e-05 14.5 2.09808e-05C16.4042 2.09808e-05 18.2897 0.375075 20.0489 1.10377C21.8081 1.83246 23.4066 2.90052 24.7531 4.24697C27.4723 6.96625 29 10.6544 29 14.5C29 18.3457 27.4723 22.0338 24.7531 24.7531C23.4066 26.0995 21.8081 27.1676 20.0489 27.8963C18.2897 28.625 16.4042 29 14.5 29C10.6544 29 6.96623 27.4723 4.24695 24.7531C1.52768 22.0338 3.8147e-06 18.3457 3.8147e-06 14.5ZM2.9 14.5C2.9 17.5765 4.12214 20.527 6.29756 22.7025C8.47299 24.8779 11.4235 26.1 14.5 26.1C17.5765 26.1 20.527 24.8779 22.7024 22.7025C24.8779 20.527 26.1 17.5765 26.1 14.5C26.1 11.4235 24.8779 8.473 22.7024 6.29758C20.527 4.12216 17.5765 2.90002 14.5 2.90002C11.4235 2.90002 8.47299 4.12216 6.29756 6.29758C4.12214 8.473 2.9 11.4235 2.9 14.5ZM11.6 7.25002L18.85 14.5L11.6 21.75V7.25002Z" fill="white"/>
</svg>
