<svg width="29" height="29" viewBox="0 0 29 29" fill="none" xmlns="http://www.w3.org/2000/svg">
<path d="M29 14.5C29 12.5958 28.6249 10.7103 27.8962 8.9511C27.1675 7.19188 26.0995 5.59341 24.753 4.24696C23.4066 2.90051 21.8081 1.83245 20.0489 1.10376C18.2897 0.375062 16.4042 8.58307e-06 14.5 8.58307e-06C12.5958 8.58307e-06 10.7103 0.375062 8.95107 1.10376C7.19185 1.83245 5.59339 2.90051 4.24694 4.24696C1.52766 6.96624 -1.52588e-05 10.6544 -1.52588e-05 14.5C-1.52588e-05 18.3456 1.52766 22.0338 4.24694 24.7531C5.59339 26.0995 7.19185 27.1676 8.95107 27.8963C10.7103 28.625 12.5958 29 14.5 29C18.3456 29 22.0338 27.4723 24.753 24.7531C27.4723 22.0338 29 18.3456 29 14.5ZM26.1 14.5C26.1 17.5765 24.8778 20.527 22.7024 22.7024C20.527 24.8779 17.5765 26.1 14.5 26.1C11.4235 26.1 8.47297 24.8779 6.29755 22.7024C4.12212 20.527 2.89998 17.5765 2.89998 14.5C2.89998 11.4235 4.12212 8.47299 6.29755 6.29757C8.47297 4.12215 11.4235 2.90001 14.5 2.90001C17.5765 2.90001 20.527 4.12215 22.7024 6.29757C24.8778 8.47299 26.1 11.4235 26.1 14.5ZM17.4 7.25001L10.15 14.5L17.4 21.75V7.25001Z" fill="white"/>
</svg>
