<svg width="28" height="28" viewBox="0 0 28 28" fill="none" xmlns="http://www.w3.org/2000/svg">
<path d="M14 0.1875C6.38387 0.1875 0.1875 6.38387 0.1875 14C0.1875 21.6161 6.38387 27.8125 14 27.8125C21.6161 27.8125 27.8125 21.6161 27.8125 14C27.8125 6.38387 21.6161 0.1875 14 0.1875ZM21.9688 12.2834C21.9688 12.4352 21.9084 12.5808 21.8011 12.6882C21.6937 12.7955 21.5481 12.8558 21.3963 12.8558H17.4425C17.3292 12.856 17.2185 12.8225 17.1243 12.7597C17.0301 12.6968 16.9566 12.6074 16.9133 12.5028C16.87 12.3981 16.8587 12.283 16.8809 12.1719C16.9032 12.0609 16.9578 11.9589 17.0381 11.879L18.5103 10.4068L18.1384 9.97445C17.4733 9.2839 16.6473 8.76895 15.7345 8.47562C14.8216 8.1823 13.8503 8.11975 12.9074 8.29357C11.9645 8.46738 11.0793 8.87215 10.3311 9.47168C9.58283 10.0712 8.9948 10.8468 8.61956 11.7292C8.24433 12.6115 8.09359 13.5731 8.18082 14.5279C8.26805 15.4827 8.59053 16.4011 9.11943 17.2008C9.64833 18.0006 10.3672 18.6568 11.2117 19.1108C12.0562 19.5648 13 19.8025 13.9588 19.8026C15.1588 19.8015 16.329 19.4291 17.3089 18.7365C18.2888 18.044 19.0304 17.0652 19.432 15.9344C19.4786 15.8027 19.5506 15.6815 19.6439 15.5777C19.7373 15.4738 19.8502 15.3894 19.9762 15.3291C20.1022 15.2689 20.2389 15.2341 20.3783 15.2267C20.5178 15.2193 20.6574 15.2394 20.789 15.286C20.9207 15.3325 21.042 15.4045 21.1458 15.4979C21.2497 15.5912 21.3341 15.7042 21.3943 15.8302C21.4545 15.9562 21.4893 16.0928 21.4967 16.2323C21.5042 16.3717 21.484 16.5113 21.4375 16.643C20.9532 18.0135 20.1015 19.2245 18.9755 20.1437C17.8494 21.0629 16.4924 21.6548 15.0526 21.8548C13.6129 22.0548 12.1459 21.8552 10.8119 21.2778C9.47796 20.7004 8.32839 19.7674 7.48886 18.5808C6.64934 17.3942 6.15215 15.9996 6.05165 14.5495C5.95115 13.0994 6.25121 11.6496 6.91902 10.3586C7.58683 9.06748 8.5967 7.98482 9.83825 7.22891C11.0798 6.473 12.5053 6.07293 13.9588 6.07242C15.0316 6.06832 16.0938 6.28391 17.0801 6.70591C18.0664 7.1279 18.9559 7.74736 19.6937 8.52613L19.7309 8.5673L20.0171 8.89934L20.9919 7.92449C21.0438 7.87138 21.1058 7.82911 21.1742 7.80016C21.2426 7.7712 21.3161 7.75613 21.3904 7.75582C21.4659 7.75521 21.5409 7.76958 21.6109 7.79813C21.6809 7.82667 21.7445 7.8688 21.7981 7.9221C21.8517 7.97539 21.8942 8.03879 21.9232 8.10862C21.9521 8.17844 21.9669 8.25332 21.9668 8.32891L21.9688 12.2834Z" fill="white"/>
</svg>
